<svg width="261.000000" height="48.000000" viewBox="0 0 261 48" fill="none" xmlns="http://www.w3.org/2000/svg" xmlns:xlink="http://www.w3.org/1999/xlink">
	<desc>
			Created with Pixso.
	</desc>
	<defs/>
	<path id="Сибирь Банк" d="M120.98 24.99Q119.39 24.03 117.21 24.03Q115.86 24.03 114.68 24.47Q113.29 24.99 112.12 26.12Q112.53 24 113.68 22.82Q114.84 21.65 116.84 21.25Q120.21 20.57 121.53 19.34Q121.63 19.25 121.72 19.15Q122.85 17.92 122.85 15.65L119.2 15.65Q119.2 16.09 119.01 16.42Q118.87 16.66 118.62 16.85Q118.04 17.28 116.04 17.71Q113.88 18.19 112.34 19.43Q111.16 20.38 110.33 21.78Q108.43 25.01 108.4 30.71L108.4 31.46Q108.4 35.23 110.23 37.55Q110.39 37.75 110.57 37.94Q111.24 38.68 112.05 39.19Q113.86 40.32 116.39 40.32Q119.17 40.32 121.09 39.03Q121.68 38.64 122.18 38.12Q122.64 37.65 123.01 37.11Q124.34 35.13 124.34 32.26L124.34 32.04Q124.34 28.59 122.66 26.48Q122.53 26.33 122.4 26.18Q121.76 25.47 120.98 24.99ZM86.38 36.88Q87.7 35.05 87.89 32.42L83.2 32.42Q83.04 34.5 81.97 35.49Q80.9 36.48 78.73 36.48Q77.09 36.48 76.05 35.69Q75.56 35.32 75.21 34.78Q74.09 33.07 74.09 29.39L74.09 27.67Q74.12 24.14 75.28 22.46Q75.68 21.88 76.22 21.5Q77.25 20.78 78.79 20.78Q80.95 20.78 82 21.77Q83.06 22.76 83.23 24.96L87.92 24.96Q87.61 21.85 85.95 19.88Q85.58 19.43 85.14 19.04Q84.86 18.8 84.57 18.59Q82.29 16.93 78.79 16.93Q76.31 16.93 74.36 17.95Q74.08 18.1 73.8 18.27Q73.27 18.6 72.8 19Q71.37 20.22 70.5 22.1Q69.34 24.6 69.34 27.89L69.34 29.28Q69.34 34.42 71.85 37.36Q72.67 38.33 73.69 38.98Q75.79 40.31 78.73 40.31Q82.35 40.31 84.7 38.58Q84.94 38.4 85.17 38.2Q85.87 37.6 86.38 36.88ZM193.46 21.04L203.62 21.04L203.62 17.25L188.73 17.25L188.73 40L197.29 40Q200.94 39.97 203.22 38.19Q203.36 38.08 203.5 37.96Q204.43 37.16 204.99 36.16Q205.84 34.64 205.84 32.64Q205.84 30.64 204.98 29.14Q204.41 28.16 203.49 27.39Q201.14 25.45 197.12 25.45L193.46 25.45L193.46 21.04ZM158.38 37.96Q160.15 35.6 160.15 31.7L160.15 31.46Q160.15 27.4 158.42 25.09Q157.72 24.16 156.79 23.6Q155.42 22.78 153.56 22.78Q152.13 22.78 150.99 23.35Q150.03 23.84 149.28 24.75L149.12 23.09L144.93 23.09L144.93 46.5L149.45 46.5L149.45 38.53Q150.07 39.22 150.83 39.65Q152.03 40.31 153.59 40.31Q155.19 40.31 156.44 39.65Q157.54 39.06 158.38 37.96ZM217.87 38.48Q218.01 39.39 218.32 40L222.89 40L222.89 39.73Q222.23 38.5 222.21 36.09L222.21 28.76Q222.21 26.7 221.25 25.31Q220.88 24.78 220.38 24.35Q220.33 24.31 220.29 24.27Q218.47 22.78 215.42 22.78Q213.35 22.78 211.7 23.49Q210.04 24.2 209.14 25.45Q208.56 26.24 208.35 27.11Q208.23 27.62 208.23 28.17L212.75 28.17Q212.75 27.54 213.03 27.08Q213.17 26.85 213.39 26.67Q214.04 26.12 215.18 26.12Q216.38 26.12 216.98 26.72Q217.03 26.77 217.08 26.82Q217.11 26.86 217.15 26.9Q217.68 27.59 217.68 28.7L217.68 29.67L215.6 29.67Q211.84 29.68 209.85 31.12Q209.06 31.68 208.59 32.44Q207.85 33.61 207.85 35.25Q207.85 36.36 208.28 37.27Q208.68 38.16 209.49 38.87Q209.88 39.22 210.33 39.48Q211.72 40.31 213.6 40.31Q215.18 40.31 216.4 39.65Q217.21 39.21 217.87 38.48ZM105.37 23.09L100.85 23.09L95.2 33.51L95.2 23.09L90.67 23.09L90.67 40L95.2 40L100.85 29.56L100.85 40L105.37 40L105.37 23.09ZM141.48 23.09L136.96 23.09L131.31 33.51L131.31 23.09L126.78 23.09L126.78 40L131.31 40L136.96 29.56L136.96 40L141.48 40L141.48 23.09ZM170.71 28.04L167.48 28.04L167.48 23.09L162.95 23.09L162.95 40L170.62 40Q174.03 40 176 38.36Q176.88 37.64 177.37 36.71Q177.98 35.55 177.98 34.06Q177.98 32.56 177.38 31.37Q177.25 31.12 177.1 30.88Q176.94 30.63 176.75 30.4Q175.91 29.38 174.56 28.78Q172.9 28.04 170.71 28.04ZM235.81 40L240.34 40L240.34 23.09L235.81 23.09L235.81 29.87L230.2 29.87L230.2 23.09L225.68 23.09L225.68 40L230.2 40L230.2 33.5L235.81 33.5L235.81 40ZM248.65 33.76L250.46 33.76L254.15 40L260.17 40L254.12 31.14L259.65 23.09L253.95 23.09L250.26 29.45L248.65 29.45L248.65 23.09L244.14 23.09L244.14 40L248.65 40L248.65 33.76ZM154.8 27.73Q155.64 29.01 155.64 31.37Q155.64 35.23 153.92 36.28Q153.28 36.67 152.4 36.67Q151.09 36.67 150.28 36.03Q149.77 35.64 149.45 35L149.45 28.07Q149.73 27.49 150.19 27.12Q151.01 26.45 152.37 26.45Q153.24 26.45 153.88 26.83Q154.42 27.15 154.8 27.73ZM114.49 28.18Q115.26 27.68 116.35 27.68Q117.5 27.68 118.29 28.21Q118.63 28.44 118.91 28.77Q119.82 29.85 119.82 31.93L119.82 32.31Q119.81 34.46 118.92 35.57Q118.64 35.92 118.28 36.16Q117.51 36.68 116.39 36.68Q115.2 36.68 114.41 36.13Q114.07 35.89 113.81 35.55Q112.92 34.42 112.92 32.26Q112.92 29.84 113.83 28.76Q114.12 28.42 114.49 28.18ZM193.46 36.23L193.46 29.23L197.31 29.23Q199.08 29.26 200.11 30.15L200.11 30.16Q200.44 30.44 200.66 30.79Q201.14 31.55 201.14 32.6Q201.14 33.76 200.62 34.59Q200.39 34.95 200.07 35.25Q199.93 35.37 199.78 35.48Q198.77 36.23 197.2 36.23L193.46 36.23ZM167.48 36.39L167.48 31.67L170.68 31.67Q172.06 31.67 172.76 32.32Q172.97 32.51 173.12 32.74Q173.46 33.29 173.46 34.06Q173.46 34.79 173.14 35.31Q172.98 35.56 172.75 35.76Q172.03 36.39 170.68 36.39L167.48 36.39ZM215.92 36.64Q215.29 36.85 214.59 36.85Q213.64 36.85 213.06 36.39Q213.01 36.35 212.96 36.31Q212.71 36.07 212.56 35.78Q212.37 35.4 212.37 34.92L212.39 34.65Q212.45 33.93 212.82 33.43Q213.65 32.31 216 32.31L217.68 32.31L217.68 35.21Q217.61 35.35 217.52 35.47Q217.13 36.04 216.43 36.41Q216.18 36.54 215.92 36.64Z" fill="#1C1C1C" fill-opacity="1.000000" fill-rule="evenodd"/>
	<path id="logotype" d="M58 0L54.96 0L34.79 34.74L34.81 34.77L36.31 37.35L58 0ZM33.27 32.13L51.93 6.1e-5L48.9 6.1e-5L31.76 29.51L31.77 29.54L33.27 32.13ZM39.8 6.1e-5L36.76 6.1e-5L25.69 19.07L27.21 21.68L39.8 6.1e-5ZM30.24 26.9L45.86 6.1e-5L42.83 6.1e-5L28.72 24.29L28.74 24.32L30.24 26.9ZM16.58 40L16.57 39.99L3.03 16.66L0 16.66L13.54 39.99L13.54 40L16.58 40ZM22.64 40L22.64 39.99L9.1 16.66L6.06 16.66L19.61 39.99L19.6 40L22.64 40ZM28.71 40L28.71 39.99L15.16 16.66L12.13 16.66L25.67 39.99L25.67 40L28.71 40ZM21.23 16.66L18.2 16.66L31.74 39.99L31.74 40L34.78 40L21.23 16.66Z" fill="#E00606" fill-opacity="1.000000" fill-rule="evenodd"/>
</svg>
